<svg width="86" height="86" viewBox="0 0 86 86" fill="none" xmlns="http://www.w3.org/2000/svg">
<path d="M0 8.0625C0 6.57823 1.20323 5.375 2.6875 5.375H10.75C11.9832 5.375 13.0582 6.2143 13.3573 7.41069L15.5358 16.125H77.9375C78.7427 16.125 79.5054 16.486 80.0159 17.1087C80.5263 17.7313 80.7307 18.55 80.5728 19.3396L75.1978 46.2146C74.9565 47.4213 73.9263 48.31 72.6971 48.3716L22.1892 50.9049L23.7304 59.125H69.875C71.3593 59.125 72.5625 60.3282 72.5625 61.8125C72.5625 63.2968 71.3593 64.5 69.875 64.5H64.5H26.875H21.5C20.2067 64.5 19.0969 63.5789 18.8585 62.3078L10.8108 19.3866L8.65166 10.75H2.6875C1.20323 10.75 0 9.54677 0 8.0625ZM16.6757 21.5L21.1895 45.5733L70.3376 43.1082L74.6593 21.5H16.6757ZM26.875 64.5C20.9379 64.5 16.125 69.3129 16.125 75.25C16.125 81.1871 20.9379 86 26.875 86C32.8121 86 37.625 81.1871 37.625 75.25C37.625 69.3129 32.8121 64.5 26.875 64.5ZM64.5 64.5C58.5629 64.5 53.75 69.3129 53.75 75.25C53.75 81.1871 58.5629 86 64.5 86C70.4371 86 75.25 81.1871 75.25 75.25C75.25 69.3129 70.4371 64.5 64.5 64.5ZM26.875 69.875C29.8435 69.875 32.25 72.2815 32.25 75.25C32.25 78.2185 29.8435 80.625 26.875 80.625C23.9065 80.625 21.5 78.2185 21.5 75.25C21.5 72.2815 23.9065 69.875 26.875 69.875ZM64.5 69.875C67.4685 69.875 69.875 72.2815 69.875 75.25C69.875 78.2185 67.4685 80.625 64.5 80.625C61.5315 80.625 59.125 78.2185 59.125 75.25C59.125 72.2815 61.5315 69.875 64.5 69.875Z" fill="#07D5F5"/>
</svg>
